<svg xmlns="http://www.w3.org/2000/svg" viewBox="0 0 512 512" role="img" aria-label="Bloom Habit">
  <defs>
    <linearGradient id="bg" x1="0" y1="0" x2="1" y2="1">
      <stop offset="0%" stop-color="#f5f0e8"/>
      <stop offset="100%" stop-color="#dfeee6"/>
    </linearGradient>
    <linearGradient id="petal" x1="0" y1="0" x2="0" y2="1">
      <stop offset="0%" stop-color="#f4c6a0"/>
      <stop offset="100%" stop-color="#a8caba"/>
    </linearGradient>
  </defs>
  <rect width="512" height="512" rx="112" fill="url(#bg)"/>
  <circle cx="256" cy="256" r="48" fill="#7f9f8e"/>
  <g fill="url(#petal)">
    <ellipse cx="256" cy="150" rx="52" ry="78"/>
    <ellipse cx="256" cy="362" rx="52" ry="78"/>
    <ellipse cx="150" cy="256" rx="78" ry="52"/>
    <ellipse cx="362" cy="256" rx="78" ry="52"/>
    <ellipse cx="180" cy="180" rx="60" ry="42" transform="rotate(-45 180 180)"/>
    <ellipse cx="332" cy="180" rx="60" ry="42" transform="rotate(45 332 180)"/>
    <ellipse cx="180" cy="332" rx="60" ry="42" transform="rotate(45 180 332)"/>
    <ellipse cx="332" cy="332" rx="60" ry="42" transform="rotate(-45 332 332)"/>
  </g>
  <circle cx="256" cy="256" r="28" fill="#f8f4ec"/>
</svg>
